<svg width="30" height="29" viewBox="0 0 30 29" fill="none" xmlns="http://www.w3.org/2000/svg">
<path d="M11.6875 20.3967C11.6875 20.4813 11.6 20.5417 11.475 20.5417C11.35 20.5417 11.25 20.5417 11.25 20.3967C11.25 20.2517 11.35 20.2517 11.4625 20.2517C11.575 20.2517 11.6875 20.3121 11.6875 20.3967ZM10.4375 20.2154C10.4375 20.3 10.4375 20.3967 10.6125 20.4208C10.6573 20.4416 10.7087 20.4444 10.7556 20.4285C10.8025 20.4127 10.8409 20.3795 10.8625 20.3363C10.8625 20.2517 10.8625 20.1671 10.6875 20.1308C10.5125 20.0946 10.4625 20.1308 10.4375 20.2154ZM12.2125 20.155C12.1 20.155 12.025 20.2517 12.0375 20.3483C12.05 20.445 12.15 20.4813 12.275 20.4571C12.4 20.4329 12.4625 20.3483 12.45 20.2638C12.4375 20.1792 12.3375 20.1429 12.2125 20.155ZM14.875 4.83334C13.5567 4.82135 12.2495 5.06693 11.0318 5.55535C9.81411 6.04377 8.71104 6.76496 7.7888 7.67565C6.86656 8.58633 6.14415 9.66774 5.66492 10.855C5.18569 12.0422 4.95953 13.3108 5 14.5846C4.9651 16.6713 5.60528 18.7164 6.83112 20.4342C8.05696 22.1521 9.80724 23.457 11.8375 24.1667C12.35 24.2513 12.5375 23.9371 12.5375 23.6833V21.2667C12.5375 21.2667 9.7125 21.8708 9.1125 20.0583C9.1125 20.0583 8.6625 18.85 8 18.5963C8 18.5963 7.075 17.9679 8.0625 17.98C8.38593 18.0222 8.69463 18.137 8.96382 18.3154C9.233 18.4938 9.45518 18.7307 9.6125 19.0071C9.74329 19.2549 9.92508 19.4743 10.1467 19.6518C10.3684 19.8292 10.6252 19.961 10.9014 20.0391C11.1777 20.1172 11.4675 20.1399 11.7531 20.1058C12.0388 20.0717 12.3142 19.9815 12.5625 19.8408C12.6098 19.3364 12.8348 18.8629 13.2 18.4996C10.95 18.2458 8.675 17.9317 8.675 14.0771C8.6511 13.6416 8.72347 13.2063 8.88728 12.8C9.05109 12.3937 9.30258 12.0258 9.625 11.7208C9.3208 10.8363 9.3563 9.87547 9.725 9.01417C10.575 8.74834 12.5125 10.0896 12.5125 10.0896C14.1677 9.63832 15.9198 9.63832 17.575 10.0896C17.575 10.0896 19.5125 8.74834 20.3625 9.01417C20.7392 9.87378 20.7748 10.8374 20.4625 11.7208C20.7963 12.0216 21.0611 12.3867 21.2398 12.7926C21.4185 13.1985 21.5071 13.636 21.5 14.0771C21.5 17.9438 19.125 18.2458 16.875 18.4996C17.1011 18.7448 17.2732 19.032 17.3807 19.3436C17.4881 19.6552 17.5287 19.9848 17.5 20.3121V23.6592C17.4992 23.7408 17.5187 23.8214 17.557 23.8941C17.5953 23.9668 17.6511 24.0296 17.7198 24.077C17.7885 24.1244 17.868 24.1552 17.9516 24.1666C18.0352 24.178 18.1204 24.1697 18.2 24.1425C20.2265 23.439 21.9732 22.1379 23.1934 20.4229C24.4135 18.7078 25.0455 16.6656 25 14.5846C25.0118 13.2978 24.7576 12.0217 24.2525 10.8311C23.7473 9.64055 23.0014 8.55945 22.0583 7.65121C21.1153 6.74298 19.9941 6.0259 18.7606 5.54202C17.5271 5.05814 16.2061 4.81721 14.875 4.83334ZM8.925 18.6204V18.8258C8.93893 18.8394 8.95549 18.8501 8.97372 18.8574C8.99196 18.8647 9.0115 18.8685 9.03125 18.8685C9.05099 18.8685 9.07054 18.8647 9.08877 18.8574C9.107 18.8501 9.12356 18.8394 9.1375 18.8258C9.1375 18.8258 9.1375 18.6929 9.1375 18.6083C9.1375 18.5238 8.975 18.5721 8.925 18.6204ZM8.4875 18.2942C8.4875 18.2942 8.4875 18.415 8.575 18.4513C8.58554 18.4639 8.59887 18.474 8.61401 18.481C8.62915 18.488 8.64572 18.4917 8.6625 18.4917C8.67927 18.4917 8.69584 18.488 8.71098 18.481C8.72612 18.474 8.73945 18.4639 8.75 18.4513C8.75 18.4513 8.75 18.3304 8.6625 18.2942C8.575 18.2579 8.5125 18.2579 8.4875 18.2942ZM9.7375 19.72V19.9738C9.7375 20.0583 9.95 20.0704 10 19.9738C10.05 19.8771 10 19.8046 10 19.72C10 19.6354 9.8375 19.6596 9.7875 19.72H9.7375ZM9.275 19.1279V19.3696C9.275 19.4663 9.45 19.5025 9.5125 19.4663C9.54415 19.4311 9.56159 19.386 9.56159 19.3394C9.56159 19.2928 9.54415 19.2477 9.5125 19.2125C9.45 19.1158 9.35 19.0796 9.275 19.1279Z" fill="white"/>
</svg>
